<?xml version="1.0" encoding="UTF-8"?>
<svg version="1.1" xmlns="http://www.w3.org/2000/svg" width="315" height="204">
<path d="M0 0 C103.95 0 207.9 0 315 0 C315 67.32 315 134.64 315 204 C211.05 204 107.1 204 0 204 C0 136.68 0 69.36 0 0 Z " fill="#00C8B3" transform="translate(0,0)"/>
<path d="M0 0 C1.70736328 0.77923828 1.70736328 0.77923828 3.44921875 1.57421875 C17.91269108 8.78075723 28.4568017 20.21029463 35 35 C34.6097561 39.3902439 34.6097561 39.3902439 33 41 C30.8554932 41.19534121 28.71027782 41.38481684 26.56274414 41.54345703 C7.24698218 43.02780026 -9.23335308 49.01606527 -22.84375 63.421875 C-31.44391001 73.70467502 -34.4901053 83.22227555 -34.125 96.4375 C-34.08187184 98.60278742 -34.0425879 100.76815607 -34.0078125 102.93359375 C-33.98348145 103.88290771 -33.95915039 104.83222168 -33.93408203 105.81030273 C-34 108 -34 108 -35 109 C-41.44688779 109.47961276 -46.8055838 108.82188712 -53 107 C-59.63941797 107.30223489 -64.47766387 111.10789283 -69.8984375 114.58203125 C-70.62546875 115.03191406 -71.3525 115.48179687 -72.1015625 115.9453125 C-72.75463379 116.36312988 -73.40770508 116.78094727 -74.08056641 117.21142578 C-76.4779198 118.19634711 -77.61185958 117.9071728 -80 117 C-80.495 116.505 -80.495 116.505 -81 116 C-80.58923028 110.77735645 -79.21176359 106.75619294 -76.9375 102.0625 C-76.11572266 100.34740234 -76.11572266 100.34740234 -75.27734375 98.59765625 C-74.85582031 97.74042969 -74.43429688 96.88320312 -74 96 C-74.50789063 95.57589844 -75.01578125 95.15179688 -75.5390625 94.71484375 C-87.96659531 84.12584107 -95.72373062 71.61354002 -97.28125 55 C-97.72597185 40.76890089 -93.01678399 28.53642847 -83.75 17.8125 C-62.82506247 -4.15520851 -28.28799815 -13.00786877 0 0 Z " fill="#FCFEFE" transform="translate(163,33)"/>
<path d="M0 0 C1.04841064 0.00829834 2.09682129 0.01659668 3.17700195 0.02514648 C19.16811574 0.37114656 34.58011745 5.25847706 46.47265625 16.421875 C53.74637494 24.67075158 58.84259568 34.03488622 58.75 45.125 C58.74500488 45.91374512 58.74000977 46.70249023 58.73486328 47.51513672 C58.39602252 58.9773018 53.36379861 68.6553722 45.08984375 76.48046875 C43.1731338 78.17406961 41.23522472 79.82513474 39.25 81.4375 C39.45496094 81.994375 39.65992188 82.55125 39.87109375 83.125 C41.68647062 88.26712014 42.86088047 92.98982653 43.25 98.4375 C42.25 99.4375 42.25 99.4375 39.68359375 99.75 C34.51592969 99.2796779 30.72074198 96.79399786 26.25976562 94.28125 C21.72752823 91.84783395 18.52593563 90.91961675 13.25 91.4375 C11.765 91.9325 11.765 91.9325 10.25 92.4375 C-9.04038944 93.47695707 -26.71507887 89.81398327 -42.125 77.546875 C-49.87430407 70.47825305 -55.98212236 60.23694289 -57.0234375 49.66015625 C-57.39235198 38.18124043 -54.24144884 28.30755618 -46.75 19.4921875 C-33.99413869 6.38753311 -18.19422102 -0.18735637 0 0 Z " fill="#FCFEFE" transform="translate(191.75,81.5625)"/>
<path d="M0 0 C4.04095372 2.09530934 6.34382125 3.76668329 8 8 C8.32974382 11.84014158 8.14131463 15.58583464 5.66015625 18.66015625 C2.7122131 21.13239219 0.09772033 22.82130134 -3.6875 23.4375 C-8.3452915 22.82231999 -10.84161622 20.35850176 -14 17 C-15.61429923 13.77140153 -15.59570657 10.49006347 -15 7 C-11.40336873 0.7327358 -7.02650481 -0.9534105 0 0 Z " fill="#05C9B4" transform="translate(158,51)"/>
<path d="M0 0 C3.60617867 1.86502752 6.25511243 4.15968954 7.796875 7.96875 C8.54909161 11.88027637 8.15416581 13.69737823 6.3125 17.3125 C1.59670383 22.79301987 1.59670383 22.79301987 -3.375 23.4375 C-8.22476105 22.85218401 -11.33887369 21.11416075 -14.375 17.25 C-15.34165091 13.77005671 -15.68551123 10.536152 -15 7 C-11.46956567 0.8972046 -6.95537039 -1.28849488 0 0 Z " fill="#06C9B4" transform="translate(112,51)"/>
<path d="M0 0 C2.4375 1.5625 2.4375 1.5625 4 4 C4.7363388 9.99590164 4.7363388 9.99590164 2.625 12.875 C-0.68110802 15.16384402 -2.98260302 15.48208764 -7 15 C-9.4375 12.9375 -9.4375 12.9375 -11 10 C-10.93977486 6.50694211 -10.63658168 4.09633511 -8.875 1.0625 C-5.81547541 -0.6712306 -3.43182475 -0.42145216 0 0 Z " fill="#07C9B5" transform="translate(177,105)"/>
<path d="M0 0 C2.4375 1 2.4375 1 4 3 C4.45364856 6.1755399 4.68938436 7.98847886 4 11 C1.9375 13.5625 1.9375 13.5625 -1 15 C-4.80284671 15 -7.01930006 14.7968187 -10 12.375 C-11.45635054 8.91616747 -10.91305869 6.58701629 -10 3 C-7.66826038 -1.01577379 -4.26750965 -0.44921154 0 0 Z " fill="#07C9B5" transform="translate(215,105)"/>
</svg>
