<?xml version="1.0" encoding="UTF-8"?>
<svg version="1.1" xmlns="http://www.w3.org/2000/svg" width="297" height="235">
<path d="M0 0 C98.01 0 196.02 0 297 0 C297 77.55 297 155.1 297 235 C198.99 235 100.98 235 0 235 C0 157.45 0 79.9 0 0 Z " fill="#00C8B3" transform="translate(0,0)"/>
<path d="M0 0 C12.68707992 5.6148901 23.60958724 17.05627525 33.6875 26.3359375 C34.61304688 27.15835938 35.53859375 27.98078125 36.4921875 28.828125 C41.98109334 33.7220275 46.98562196 38.69169993 51.6875 44.3359375 C52.48414063 45.24472656 53.28078125 46.15351562 54.1015625 47.08984375 C61.92671819 56.05464103 68.90319162 65.56672508 75.6875 75.3359375 C76.3990625 76.34398438 77.110625 77.35203125 77.84375 78.390625 C80.88825478 83.00046479 82.56503398 86.68875415 82.1484375 92.29296875 C81.25446859 96.2552208 79.35268177 99.19883421 76 101.48828125 C72.75694677 102.67703556 69.87835895 102.52465711 66.4375 102.4609375 C65.17421875 102.44289063 63.9109375 102.42484375 62.609375 102.40625 C61.64515625 102.38304687 60.6809375 102.35984375 59.6875 102.3359375 C59.71106567 103.49826904 59.71106567 103.49826904 59.73510742 104.68408203 C60.37372234 140.9369308 60.37372234 140.9369308 52.6875 151.3359375 C46.70515922 157.31827828 39.79353992 159.57724861 31.46484375 159.7265625 C28.85127479 159.70022931 26.23784368 159.65290047 23.625 159.5859375 C22.26890675 159.56583041 20.91278453 159.54758711 19.55664062 159.53125 C16.26617514 159.48441063 12.97722165 159.41882612 9.6875 159.3359375 C9.68607498 158.76488281 9.68464996 158.19382813 9.68318176 157.60546875 C9.66341837 151.63477206 9.60900336 145.66508859 9.53491211 139.69482422 C9.51178701 137.4699634 9.49734935 135.24499396 9.49194336 133.02001953 C9.48261396 129.81214131 9.44153403 126.60595864 9.39453125 123.3984375 C9.3984639 122.41166016 9.40239655 121.42488281 9.40644836 120.40820312 C9.27027427 113.88916074 8.00476909 109.33714642 3.6875 104.3359375 C-0.73984111 101.18760605 -4.99632842 100.61475143 -10.3125 101.3359375 C-15.99355645 102.87656298 -18.370101 105.07543776 -21.26913452 109.94091797 C-23.17481353 114.31535677 -23.03829318 118.69070755 -23.01953125 123.3984375 C-23.04221321 124.9462793 -23.04221321 124.9462793 -23.06535339 126.52539062 C-23.10807111 129.79579799 -23.11705333 133.06527949 -23.125 136.3359375 C-23.14815657 138.56382642 -23.17352431 140.79169353 -23.20117188 143.01953125 C-23.26386658 148.45834227 -23.29892708 153.89679383 -23.3125 159.3359375 C-27.79154099 159.4237795 -32.27035724 159.47661197 -36.75 159.5234375 C-38.01005859 159.54857422 -39.27011719 159.57371094 -40.56835938 159.59960938 C-49.43677618 159.66907478 -58.11987506 159.33810238 -64.96875 152.96484375 C-73.75657329 142.31216262 -73.61425095 128.76199838 -73.4375 115.6484375 C-73.42847656 114.36259766 -73.41945313 113.07675781 -73.41015625 111.75195312 C-73.3868189 108.61308018 -73.35408033 105.47461274 -73.3125 102.3359375 C-74.33730469 102.39394531 -75.36210938 102.45195312 -76.41796875 102.51171875 C-77.77860011 102.55863707 -79.13928096 102.60413502 -80.5 102.6484375 C-81.17353516 102.69033203 -81.84707031 102.73222656 -82.54101562 102.77539062 C-86.53466528 102.87279671 -88.10275201 102.50959981 -91.21875 99.9296875 C-94.550839 95.80187575 -95.78687708 93.1304809 -95.72583008 87.67016602 C-94.87498781 82.86514363 -91.77549632 79.11781442 -89 75.2109375 C-88.36280029 74.28804932 -87.72560059 73.36516113 -87.0690918 72.41430664 C-78.62458341 60.29625227 -69.57259005 48.9776745 -59.3125 38.3359375 C-58.64798828 37.64419434 -57.98347656 36.95245117 -57.29882812 36.23974609 C-47.8486099 26.4544287 -38.29618761 17.369184 -27.3125 9.3359375 C-26.26707031 8.55347656 -25.22164063 7.77101563 -24.14453125 6.96484375 C-16.11783773 1.01639585 -10.25895351 -2.94598327 0 0 Z " fill="#FDFEFE" transform="translate(158.3125,27.6640625)"/>
</svg>
