<?xml version="1.0" encoding="UTF-8"?>
<svg version="1.1" xmlns="http://www.w3.org/2000/svg" width="303" height="220">
<path d="M0 0 C99.99 0 199.98 0 303 0 C303 72.6 303 145.2 303 220 C203.01 220 103.02 220 0 220 C0 147.4 0 74.8 0 0 Z " fill="#00C8B3" transform="translate(0,0)"/>
<path d="M0 0 C1.20720703 -0.01160156 2.41441406 -0.02320313 3.65820312 -0.03515625 C14.67624583 0.00021467 25.32424877 1.71571044 35.5625 5.875 C36.573125 6.2771875 37.58375 6.679375 38.625 7.09375 C40.70587292 8.00136479 42.75244532 8.98953936 44.76953125 10.03125 C48.41774049 11.78647235 49.68477662 11.54563347 53.5625 10.375 C56.22145099 9.19470657 58.84962958 7.95648467 61.48046875 6.71484375 C83.45088862 -2.83630202 109.70685384 -2.53167488 132.0390625 5.6484375 C137.02714069 7.65095064 141.7491131 9.96830655 146.5625 12.375 C146.5625 54.945 146.5625 97.515 146.5625 141.375 C141.1175 137.91 141.1175 137.91 135.5625 134.375 C128.66297578 130.96399926 121.97458493 128.38165582 114.5625 126.375 C113.36625 125.983125 112.17 125.59125 110.9375 125.1875 C92.58303241 120.88394748 73.21608437 126.84470459 57.5625 136.375 C55.18438934 137.98941783 52.87491711 139.66595137 50.5625 141.375 C46.96269618 139.66289818 43.60623542 137.60826502 40.1875 135.5625 C33.24088232 131.51619384 26.27156673 128.72289085 18.5625 126.375 C17.77488281 126.12878906 16.98726563 125.88257813 16.17578125 125.62890625 C-0.72023148 121.10040007 -20.28518565 125.6085641 -35.22265625 133.92578125 C-37.65533115 135.36962217 -40.04884387 136.85983857 -42.4375 138.375 C-44.10282033 139.37724048 -45.76932721 140.3775145 -47.4375 141.375 C-47.62440166 124.77237819 -47.76546361 108.17009769 -47.85199738 91.56667805 C-47.89324516 83.85732669 -47.94947572 76.14862902 -48.04101562 68.43969727 C-48.12076666 61.72034734 -48.17236828 55.00147078 -48.19020796 48.28166074 C-48.20063651 44.7234205 -48.22512963 41.16653442 -48.28334045 37.60872841 C-48.34780537 33.63643697 -48.34941844 29.66546881 -48.34570312 25.69262695 C-48.37446533 24.5137088 -48.40322754 23.33479065 -48.43286133 22.12014771 C-48.35384482 14.33235476 -48.35384482 14.33235476 -45.6991272 11.55882835 C-43.65140256 10.25251223 -41.68817057 9.27804133 -39.4375 8.375 C-38.46425781 7.88773438 -37.49101563 7.40046875 -36.48828125 6.8984375 C-35.13283203 6.32996094 -35.13283203 6.32996094 -33.75 5.75 C-32.41388672 5.17378906 -32.41388672 5.17378906 -31.05078125 4.5859375 C-20.67022754 1.10704923 -10.92199919 -0.10462799 0 0 Z " fill="#FDFEFE" transform="translate(101.4375,40.625)"/>
<path d="M0 0 C0 29.04 0 58.08 0 88 C-6.27 86.68 -12.54 85.36 -19 84 C-23.11370122 83.70669683 -26.86486834 83.50527089 -30.9375 83.625 C-31.91130615 83.64151611 -32.8851123 83.65803223 -33.88842773 83.67504883 C-46.21978772 83.9754612 -56.53293991 86.6177813 -68 91 C-69.485 91.495 -69.485 91.495 -71 92 C-71 62.96 -71 33.92 -71 4 C-46.30221417 -7.39897808 -25.71337631 -9.35031866 0 0 Z " fill="#06C9B4" transform="translate(231,64)"/>
<path d="M0 0 C0 4.95 0 9.9 0 15 C-1.711875 14.505 -3.42375 14.01 -5.1875 13.5 C-20.46332869 10.03503559 -34.56949322 11.13940803 -49 17 C-50.32 17.33 -51.64 17.66 -53 18 C-53 13.05 -53 8.1 -53 3 C-50.48123707 2.18057052 -47.9602933 1.36934931 -45.4375 0.5625 C-44.73302734 0.33240234 -44.02855469 0.10230469 -43.30273438 -0.13476562 C-28.63809266 -4.79771622 -14.74572706 -3.10436359 0 0 Z " fill="#F7FDFC" transform="translate(222,74)"/>
<path d="M0 0 C1.55545532 -0.00870117 1.55545532 -0.00870117 3.14233398 -0.01757812 C9.94181419 0.09144906 15.57309652 1.27893777 22 3.5 C22 8.12 22 12.74 22 17.5 C20.246875 17.005 18.49375 16.51 16.6875 16 C3.1127158 12.93091835 -9.62169416 13.51933635 -22.6796875 18.30859375 C-26 19.5 -26 19.5 -31 20.5 C-31 15.55 -31 10.6 -31 5.5 C-20.64678466 1.79770077 -11.02903534 0.00656539 0 0 Z " fill="#FAFDFD" transform="translate(200,95.5)"/>
<path d="M0 0 C0 4.62 0 9.24 0 14 C-9.72093023 12.08139535 -9.72093023 12.08139535 -11.875 11.453125 C-25.72329654 8.50017941 -40.40459672 12.34260522 -53 18 C-53 13.05 -53 8.1 -53 3 C-35.7173325 -4.4068575 -18.09100059 -5.16885731 0 0 Z " fill="#F9FDFD" transform="translate(222,123)"/>
</svg>
