<?xml version="1.0" encoding="UTF-8"?>
<svg version="1.1" xmlns="http://www.w3.org/2000/svg" width="239" height="218">
<path d="M0 0 C78.87 0 157.74 0 239 0 C239 71.94 239 143.88 239 218 C160.13 218 81.26 218 0 218 C0 146.06 0 74.12 0 0 Z " fill="#00C8B3" transform="translate(0,0)"/>
<path d="M0 0 C1.55773636 -0.01292336 1.55773636 -0.01292336 3.14694214 -0.02610779 C6.56192324 -0.04871249 9.97607995 -0.04203792 13.39111328 -0.03295898 C15.77711225 -0.03819744 18.16310914 -0.04447473 20.54910278 -0.05174255 C25.54390219 -0.06213704 30.53841654 -0.05759935 35.53320312 -0.04296875 C41.91755431 -0.02579395 48.3010044 -0.04926636 54.68525505 -0.08445835 C59.61139837 -0.10647558 64.5373276 -0.1049801 69.46350479 -0.09669304 C71.81650912 -0.09587569 74.16952951 -0.10269752 76.52248764 -0.11746407 C79.82023351 -0.1349865 83.11637939 -0.12030119 86.4140625 -0.09765625 C87.85610046 -0.11519455 87.85610046 -0.11519455 89.32727051 -0.13308716 C96.80981234 -0.02914343 103.58007434 1.94822018 109.11211967 7.22824764 C113.46763078 12.45012327 113.00764142 19.31393383 112.68017578 25.75610352 C111.75797069 35.88987991 106.81501749 41.89400605 99.11767578 48.41235352 C78.28494986 63.93273433 52.75741983 66.65863869 27.58642578 63.78344727 C8.84854651 60.86194996 -6.82175593 54.80649111 -19.66357422 40.53344727 C-25.36819304 31.92623231 -25.9466846 22.59747507 -24.66357422 12.53344727 C-22.46967225 6.68034348 -18.45122752 4.06879673 -13.02703476 1.40635872 C-8.75520986 -0.17138071 -4.50759859 -0.03047009 0 0 Z " fill="#FDFEFE" transform="translate(70.66357421875,122.466552734375)"/>
<path d="M0 0 C1.175625 0.63615234 1.175625 0.63615234 2.375 1.28515625 C12.19512995 7.24026884 19.13299481 15.80943137 22 27 C23.45139288 39.2148197 21.04524042 49.85068276 13.875 59.87109375 C6.22879616 68.55272102 -4.83240515 74.47843208 -16.37109375 75.4765625 C-29.17467301 76.10613527 -40.13851317 73.26910944 -50.07421875 64.8046875 C-58.20326691 57.18679653 -63.10790323 49.32656837 -63.54370117 37.9519043 C-63.6377916 25.36700359 -61.23668804 17.49023936 -52.3515625 8.2578125 C-38.63010336 -4.91661172 -17.35107447 -9.40826842 0 0 Z " fill="#FDFEFE" transform="translate(135,32)"/>
</svg>
